<?xml version="1.0" encoding="UTF-8"?>
<svg id="balance" xmlns="http://www.w3.org/2000/svg" viewBox="0 0 58.44 59.53">
  <defs>
    <style>
      .cls-1 {
        fill: #fff;
      }

      .cls-2 {
        fill: #97cb81;
      }
    </style>
  </defs>
  <circle class="cls-2" cx="29.22" cy="29.22" r="29.22"/>
  <g>
    <path class="cls-1" d="M6.36,18.02c.17-.25.26-.4.51-.61,2.32-1.97,5.77-3.52,8.2-5.46.69-.34,1.03-.2,1.65.14,2.72,1.51,5.36,3.79,8.06,5.39.89,1.02.36,2.22-.92,2.47v9.54c.04.37-.63,1.12-.93,1.12h-5.76v1.56s.33.59.4.67c.21.22.68.41.98.45,7.23-.06,14.49.11,21.7-.08.35-.04,1.02-.75,1.02-1.03v-1.56h-5.94c-.75,0-2.1-1.44-2.1-2.19v-3.26h18.84v3.35c0,.72-1.37,2.1-2.1,2.1h-5.94v1.74c0,1.73-2.27,3.71-3.97,3.71h-9.51v2.59h2.01c2.21,0,4.74,2.11,5.56,4.08.43,1.04,1.14,3.59-.42,4h-16.97c-1.71-.44-.74-3.41-.19-4.48.88-1.73,3.34-3.6,5.33-3.6h2.01v-2.59h-9.51c-1.7,0-3.97-1.98-3.97-3.71v-1.74h-5.76c-.28,0-.99-.76-.94-1.11v-9.6c-.61-.03-1.06-.38-1.34-.9v-.98ZM15.54,17.24c-1.63.26-1.26,2.87.49,2.55,1.61-.29,1.22-2.82-.49-2.55ZM17.08,30.61v-7.01s-.33-.61-.4-.67c-.57-.54-1.58-.42-2,.24-.03.06-.19.41-.19.43v7.01h2.59Z"/>
    <path class="cls-1" d="M46.72,17.13h3.08c.78,0,2.28,1.32,2.28,2.1v3.35h-18.84v-3.26c0-.28.57-1.21.8-1.43.25-.24,1.16-.76,1.48-.76h3.08v-3.26c0-1.01,1.32-2.01,2.27-2.1.82-.08,3.55-.09,4.24.14.61.21,1.61,1.21,1.61,1.87v3.35ZM43.95,14.54h-2.59v2.59h2.59v-2.59Z"/>
  </g>
</svg>