<?xml version="1.0" encoding="UTF-8"?>
<svg id="support" xmlns="http://www.w3.org/2000/svg" version="1.1" viewBox="0 0 60 60.5">
  <!-- Generator: Adobe Illustrator 29.2.0, SVG Export Plug-In . SVG Version: 2.1.0 Build 108)  -->
  <defs>
    <style>
      .st0 {
        fill: #fff;
      }

      .st1 {
        fill: #6dc8ef;
      }
    </style>
  </defs>
  <circle class="st1" cx="30.2" cy="30.2" r="29.2"/>
  <g>
    <path class="st0" d="M10.3,23.3c.1-1.4.8-3.1,1.6-4.2,3.7-5.8,11.8-6.3,16.4-1.2l-3.6,3.6v.2c2.9,2.9,5.4,5.9,9.8,4.3.2,0,1.2-.6,1.3-.6l8.7,8.7c1.6,1.6-.4,4.1-2.3,2.6l-6.4-6.4h-.2c0,0-1.9,1.9-1.9,1.9l6.5,6.6c1.4,1.8-1,3.9-2.6,2.2l-6.4-6.4-2,2,6.6,6.6c.8.9.3,2.4-.8,2.7-1.2.4-1.6-.5-2.5-1.1-1.1-.7-2.3-.7-3.5-.5-.5-1.9-2.4-3.4-4.5-3.3,0-2.2-1.9-4-3.9-4.3.1-3-2.3-5.1-5.2-4.8-.6,0-1.1.4-1.7.5-1.4-1.3-2.4-2.9-3-4.8-.1-.5-.3-1.3-.4-1.8,0-.6,0-1.8,0-2.4h0Z"/>
    <path class="st0" d="M39.2,14.3c3.8-.3,7.5,1.5,9.5,4.7,2.7,4.2,1.8,9.9-1.9,13.2l-11-11c-1,1-1.8,2-3.3,2.1-1.8.1-2.8-.7-3.9-1.9v-.2c3.3-3.1,5.7-6.5,10.5-6.9Z"/>
    <path class="st0" d="M19.6,39.4c1.3-.2,2.3.9,2,2.2-.1.5-1.4,1.8-1.8,2.1-1.4,1-3.2-.2-2.6-1.9.2-.7,1.8-2.3,2.5-2.4h0Z"/>
    <path class="st0" d="M24.2,43.7c1.4-.2,2.3.8,2,2.2-.1.6-1.8,2.2-2.4,2.4-1.4.3-2.6-.8-2.1-2.2.2-.5,1.9-2.2,2.5-2.3h0Z"/>
    <path class="st0" d="M15.9,34.5c1.2,0,2.1,1.2,1.7,2.4-.1.3-1.6,1.8-1.9,2-1.5,1-3.5-.9-2.2-2.5.5-.6,1.7-1.8,2.4-1.9Z"/>
    <path class="st0" d="M30.1,46.9c1.3,0,2.1,1.2,1.6,2.4-.1.3-1.6,1.8-1.9,2-1.4.9-3.1-.5-2.5-2.1.1-.4,1.8-2,2.2-2.2.1,0,.4-.1.6-.1h0Z"/>
  </g>
</svg>