<?xml version="1.0" encoding="UTF-8"?>
<svg id="trust" xmlns="http://www.w3.org/2000/svg" version="1.1" viewBox="0 0 59.1 59.5">
  <!-- Generator: Adobe Illustrator 29.2.0, SVG Export Plug-In . SVG Version: 2.1.0 Build 108)  -->
  <defs>
    <style>
      .st0 {
        fill: #336db4;
      }

      .st1 {
        fill: #fff;
      }
    </style>
  </defs>
  <circle class="st0" cx="29.7" cy="29.8" r="29"/>
  <g>
    <path class="st1" d="M31.2,9.9c11.2.9,17.9,13.5,12.6,23.4-5.8,10.9-21.4,11.2-27.7.6-5.9-9.9.7-23.2,12.2-24,.8,0,2.1,0,3,0h0ZM28.7,12.9c-8.2.6-13.7,8.8-11.4,16.7,3.3,10.9,18.2,12.5,23.7,2.5,5-9.1-2.1-19.9-12.3-19.2h0Z"/>
    <path class="st1" d="M9.8,40.4l4.7-4.6c2.5,3.8,6.4,6.5,10.8,7.7v.2c-.1,0-6.1,6-6.1,6h-.3c0,0-1.9-5.8-1.9-5.8-.2-.6-.7-1.1-1.3-1.3l-5.9-1.8v-.3Z"/>
    <path class="st1" d="M49.6,40.7l-5.9,1.8c-.6.2-1.1.7-1.3,1.3l-1.8,5.9h-.3c0,0-6.1-6.2-6.1-6.2,0-.2,0,0,0-.1.4-.2,1.2-.3,1.7-.5,3.7-1.4,6.8-3.8,9-7.1,1.6,1.4,3.1,3,4.6,4.5v.3c0,0,0,0,0,0Z"/>
    <path class="st1" d="M28.9,15.1c8.4-.6,14.2,8.4,10.1,15.9-3.8,6.8-13.4,7.3-18,1.1-4.9-6.7-.4-16.3,7.9-16.9ZM34.2,22.2c-.2,0-.3.1-.5.2l-5.8,4.3c-.1,0-.2-.2-.3-.2-.5-.5-1.3-1.6-1.9-2s-1.2-.5-1.6,0c-.7.8-.1,1.4.4,2,.6.7,1.7,1.9,2.4,2.5.3.3.7.4,1.1.3.5-.1,2.1-1.5,2.6-1.9,1.3-1,3.2-2.2,4.3-3.2,0-.1.3-.2.3-.4.6-.9-.1-1.9-1.2-1.7h0Z"/>
  </g>
</svg>